<svg width="129" height="22" viewBox="0 0 129 22" fill="none" xmlns="http://www.w3.org/2000/svg">
<g clip-path="url(#clip0)">
<path d="M9.38058 5.52239C12.1179 5.52239 14.3288 6.0796 16.0133 7.19403C17.7189 8.28856 18.5717 9.97015 18.5717 12.2388H12.4759C12.4759 10.4478 11.4441 9.55224 9.38058 9.55224C7.31706 9.55224 6.28531 10.6766 6.28531 12.9254V14.6269C6.28531 16.8557 7.35918 17.9702 9.50692 17.9702C11.6547 17.9702 12.7285 17.0547 12.7285 15.2239H18.5717C18.5717 17.5124 17.7189 19.2139 16.0133 20.3284C14.3288 21.4428 12.1179 22 9.38058 22C6.45376 22 4.15862 21.3035 2.49517 19.9104C0.831724 18.5174 0 16.4677 0 13.7612C0 11.0547 0.831724 9.00498 2.49517 7.61194C4.15862 6.21891 6.45376 5.52239 9.38058 5.52239Z" fill="#0B1728"/>
<path d="M22.7921 21.6418V0H29.0774V21.6418H22.7921Z" fill="#0B1728"/>
<path d="M42.9117 5.52239C45.4595 5.52239 47.5335 5.93035 49.1338 6.74627C50.7341 7.54229 51.5342 8.84577 51.5342 10.6567V16.806C51.5342 17.1443 51.6184 17.4229 51.7869 17.6418C51.9553 17.8607 52.208 17.9702 52.5449 17.9702H53.682V21.403C53.6188 21.4428 53.4503 21.5124 53.1766 21.6119C52.9239 21.6915 52.5555 21.7711 52.0712 21.8507C51.5869 21.9503 51.0289 22 50.3972 22C49.1759 22 48.1652 21.8308 47.3651 21.4925C46.586 21.1343 46.0491 20.6468 45.7543 20.0299C44.9541 20.6269 44.0592 21.1045 43.0696 21.4627C42.0799 21.8209 40.9218 22 39.5953 22C35.6788 22 33.7206 20.5274 33.7206 17.5821C33.7206 16.0498 34.1522 14.8856 35.0156 14.0896C35.8999 13.2736 37.1633 12.7164 38.8057 12.4179C40.4481 12.1194 42.5958 11.9702 45.2489 11.9702V11.194C45.2489 10.5771 45.0173 10.1095 44.5541 9.79105C44.1119 9.47264 43.5328 9.31343 42.8169 9.31343C42.1642 9.31343 41.5956 9.42289 41.1114 9.64179C40.6481 9.8607 40.4165 10.209 40.4165 10.6866V10.806H34.2259C34.2049 10.7065 34.1944 10.5672 34.1944 10.3881C34.1944 8.89552 34.9419 7.71144 36.4369 6.83582C37.9529 5.9602 40.1112 5.52239 42.9117 5.52239ZM45.2489 14.7761C43.4591 14.7761 42.1326 14.9652 41.2693 15.3433C40.427 15.7015 40.0059 16.1891 40.0059 16.806C40.0059 17.801 40.7218 18.2985 42.1536 18.2985C42.9748 18.2985 43.6908 18.0896 44.3014 17.6716C44.9331 17.2537 45.2489 16.7363 45.2489 16.1194V14.7761Z" fill="#0B1728"/>
<path d="M65.2416 5.52239C67.4736 5.52239 69.3581 5.9403 70.8952 6.77612C72.4534 7.59204 73.2325 8.86567 73.2325 10.597H67.3894C67.3894 10.0199 67.1156 9.61194 66.5682 9.37313C66.1892 9.17413 65.7154 9.07463 65.1469 9.07463C63.6308 9.07463 62.8728 9.41294 62.8728 10.0896C62.8728 10.4677 63.136 10.7363 63.6624 10.8955C64.1888 11.0547 65.0521 11.2239 66.2523 11.403C67.7263 11.602 68.9581 11.8408 69.9477 12.1194C70.9374 12.3781 71.8007 12.8557 72.5376 13.5522C73.2746 14.2289 73.6431 15.1841 73.6431 16.4179C73.6431 18.4279 72.8429 19.8607 71.2427 20.7164C69.6634 21.5721 67.5894 22 65.0205 22C63.5466 22 62.1569 21.8109 60.8514 21.4328C59.5459 21.0348 58.4826 20.4279 57.6614 19.6119C56.8402 18.796 56.4296 17.7612 56.4296 16.5075H62.2727V16.6269C62.2937 17.3035 62.5885 17.7811 63.157 18.0597C63.7466 18.3184 64.3678 18.4478 65.0205 18.4478C66.7682 18.4478 67.642 18.0597 67.642 17.2836C67.642 16.8856 67.3683 16.597 66.8208 16.4179C66.2734 16.2388 65.3785 16.0498 64.1362 15.8507C62.6412 15.6119 61.4094 15.3532 60.4408 15.0746C59.4933 14.796 58.6615 14.3284 57.9456 13.6716C57.2297 12.995 56.8717 12.0597 56.8717 10.8657C56.8717 8.93532 57.6403 7.56219 59.1774 6.74627C60.7356 5.93035 62.757 5.52239 65.2416 5.52239Z" fill="#0B1728"/>
<path d="M86.1293 5.52239C88.3613 5.52239 90.2458 5.9403 91.7829 6.77612C93.3411 7.59204 94.1202 8.86567 94.1202 10.597H88.277C88.277 10.0199 88.0033 9.61194 87.4559 9.37313C87.0768 9.17413 86.6031 9.07463 86.0346 9.07463C84.5185 9.07463 83.7605 9.41294 83.7605 10.0896C83.7605 10.4677 84.0237 10.7363 84.5501 10.8955C85.0765 11.0547 85.9398 11.2239 87.14 11.403C88.6139 11.602 89.8457 11.8408 90.8354 12.1194C91.825 12.3781 92.6883 12.8557 93.4253 13.5522C94.1623 14.2289 94.5308 15.1841 94.5308 16.4179C94.5308 18.4279 93.7306 19.8607 92.1304 20.7164C90.5511 21.5721 88.4771 22 85.9082 22C84.4343 22 83.0446 21.8109 81.7391 21.4328C80.4336 21.0348 79.3702 20.4279 78.549 19.6119C77.7278 18.796 77.3172 17.7612 77.3172 16.5075H83.1604V16.6269C83.1814 17.3035 83.4762 17.7811 84.0447 18.0597C84.6343 18.3184 85.2555 18.4478 85.9082 18.4478C87.6559 18.4478 88.5297 18.0597 88.5297 17.2836C88.5297 16.8856 88.256 16.597 87.7085 16.4179C87.1611 16.2388 86.2662 16.0498 85.0238 15.8507C83.5289 15.6119 82.2971 15.3532 81.3285 15.0746C80.3809 14.796 79.5492 14.3284 78.8333 13.6716C78.1174 12.995 77.7594 12.0597 77.7594 10.8657C77.7594 8.93532 78.528 7.56219 80.0651 6.74627C81.6233 5.93035 83.6447 5.52239 86.1293 5.52239Z" fill="#0B1728"/>
<path d="M99.3104 21.6418V5.8806H105.596V21.6418H99.3104Z" fill="#0B1728"/>
<path d="M119.809 5.52239C122.546 5.52239 124.757 6.0796 126.442 7.19403C128.147 8.28856 129 9.97015 129 12.2388H122.904C122.904 10.4478 121.872 9.55224 119.809 9.55224C117.745 9.55224 116.714 10.6766 116.714 12.9254V14.6269C116.714 16.8557 117.788 17.9702 119.935 17.9702C122.083 17.9702 123.157 17.0547 123.157 15.2239H129C129 17.5124 128.147 19.2139 126.442 20.3284C124.757 21.4428 122.546 22 119.809 22C116.882 22 114.587 21.3035 112.924 19.9104C111.26 18.5174 110.428 16.4677 110.428 13.7612C110.428 11.0547 111.26 9.00498 112.924 7.61194C114.587 6.21891 116.882 5.52239 119.809 5.52239Z" fill="#0B1728"/>
<path d="M103.795 0L99.3103 4.02985H105.596L110.081 0H103.795Z" fill="#FFCD1E"/>
</g>
<defs>
<clipPath id="clip0">
<rect width="129" height="22" fill="white"/>
</clipPath>
</defs>
</svg>
